<svg xmlns="http://www.w3.org/2000/svg" viewBox="0 0 420 250" fill="none" stroke="#00c5e5" stroke-width="1.4" stroke-linejoin="round"><path d="M0 245Q171 151 420 220M24 231Q203 181 410 230M113 215l72-42 110 6 87 47M141 212l52-31 33 4 53 34M157 210l47-23 26 9M198 215l38-12 69 28M48 226v-57h12v50m-9-50v-31h6v31M68 214v-76h15v69m-12-69v-11h9v11M96 204V99h10v103m-5-103V76m-9 24 9-9 9 9-9 9-9-9ZM123 195V37h35v147M128 37v139m25-139v139M128 41q13 83 25 0M140 84v89M179 178v-44h11v41m-7-41V75h5v59M205 176V52h19v124M208 52V32h13v20M213 32V7h4v25M208 58h12m-12 10h12m-12 10h12m-12 10h12m-12 10h12m-12 10h12M240 178V101h16v80m-13-80V78h10v23m-13 10h16m-16 10h16m-16 10h16m-16 10h16m-16 10h16M270 186V127h12v62m-9-62V96h6v31M298 196V80h17v121m-15-121V67h13v13m-12 10h11m-11 10h11m-11 10h11m-11 10h11m-11 10h11m-11 10h11M327 202V119h14v86m-12-86v-9h10v9M358 211v-61h12v65m-10-65v-19h8v19M381 216v-41l8-12 8 12v45M392 167v-19"/><path d="m0 245 100-21 97-4 95 22M0 249l93-17 82-1M352 249l-76-27" stroke-opacity=".5"/></svg>
